<svg width="24" height="24" viewBox="0 0 24 24" fill="none" xmlns="http://www.w3.org/2000/svg">
<path fill-rule="evenodd" clip-rule="evenodd" d="M13.6757 16.8619C13.4414 17.1223 13.4414 17.5444 13.6757 17.8047C13.91 18.0651 14.2899 18.0651 14.5243 17.8047L19.2058 12.6031C19.3837 12.4669 19.4992 12.2486 19.5 12.0024C19.5 12.0016 19.5 12.0008 19.5 12C19.5 11.7528 19.3843 11.5336 19.2058 11.3969L14.5243 6.19526C14.2899 5.93491 13.9101 5.93491 13.6757 6.19526C13.4414 6.45561 13.4414 6.87772 13.6757 7.13807L17.3765 11.25L5.22581 11.25C4.82495 11.25 4.5 11.5858 4.5 12C4.5 12.4142 4.82495 12.75 5.22581 12.75L17.3765 12.75L13.6757 16.8619Z" fill="#E3F331"/>
</svg>
