<svg width="32" height="32" viewBox="0 0 32 32" fill="none" xmlns="http://www.w3.org/2000/svg">
<path fill-rule="evenodd" clip-rule="evenodd" d="M18.8927 12.456C18.4303 12.3681 17.9884 12.5983 17.5669 13.1464C17.2452 13.5493 17.017 14.0043 16.8954 14.4852C16.8323 14.7561 16.8011 15.032 16.8023 15.3085C16.8076 15.6554 16.8836 15.9987 17.0265 16.322C17.2128 16.7499 17.4615 16.9912 17.7727 17.0459C18.084 17.1007 18.4262 16.98 18.7996 16.684C19.2725 16.3108 19.596 15.7565 19.77 15.0211C19.8332 14.7502 19.8644 14.4743 19.8632 14.1978C19.8587 13.8486 19.7828 13.5031 19.6389 13.1778C19.4527 12.7528 19.2039 12.5122 18.8927 12.456Z" fill="white"/>
<path fill-rule="evenodd" clip-rule="evenodd" d="M26.8675 12.456C26.4068 12.3681 25.9649 12.5983 25.5417 13.1464C25.2191 13.5488 24.9908 14.004 24.8703 14.4852C24.8071 14.7561 24.7759 15.032 24.7771 15.3085C24.7825 15.6554 24.8584 15.9987 25.0014 16.322C25.1876 16.7499 25.4364 16.9912 25.7476 17.0459C26.0588 17.1007 26.4019 16.9807 26.7769 16.6861C27.2482 16.3137 27.5709 15.7601 27.7449 15.0254C27.8081 14.7545 27.8393 14.4786 27.838 14.2021C27.834 13.853 27.7585 13.5075 27.615 13.1821C27.4279 12.7542 27.1788 12.5122 26.8675 12.456Z" fill="white"/>
<path fill-rule="evenodd" clip-rule="evenodd" d="M28.6686 7.83368H3.33126C2.56225 7.83397 1.82485 8.10354 1.28119 8.58314C0.737533 9.06273 0.432129 9.71308 0.432129 10.3912V18.9151C0.432454 19.593 0.738041 20.2429 1.2817 20.7221C1.82536 21.2013 2.56258 21.4705 3.33126 21.4705H15.3395L20.829 24.1663L19.5853 21.4705H28.6723C29.4405 21.4699 30.1769 21.2004 30.7199 20.7213C31.2628 20.2421 31.5678 19.5925 31.5678 18.9151V10.3912C31.5679 10.0554 31.4931 9.72284 31.3474 9.41255C31.2018 9.10227 30.9883 8.82032 30.7191 8.58282C30.4498 8.34532 30.1302 8.15692 29.7784 8.02838C29.4266 7.89984 29.0495 7.83368 28.6686 7.83368ZM13.1915 19.0578C13.2205 19.3101 13.1691 19.5645 13.0432 19.7925C12.9821 19.9076 12.8869 20.006 12.7676 20.0773C12.6484 20.1486 12.5095 20.1902 12.3656 20.1977C12.0299 20.2193 11.6954 20.0799 11.3584 19.7817C10.1755 18.712 9.23613 17.1204 8.54014 15.007C7.72325 16.4477 7.11059 17.5253 6.70215 18.2398C5.95469 19.5076 5.31425 20.1577 4.78083 20.1901C4.43447 20.2117 4.13957 19.9553 3.89614 19.4208C3.24263 17.9535 2.54174 15.1147 1.79347 10.9044C1.76532 10.773 1.76865 10.6378 1.80326 10.5075C1.83787 10.3773 1.90298 10.2548 1.99443 10.1481C2.09032 10.0424 2.21134 9.95657 2.34896 9.89664C2.48658 9.83671 2.63744 9.80415 2.79089 9.80124C3.43705 9.76163 3.80791 10.0303 3.90349 10.6073C4.30213 12.9476 4.72895 14.9343 5.18396 16.5672L7.97771 11.892C8.23013 11.4699 8.54913 11.2466 8.9347 11.2221C9.49345 11.1875 9.84267 11.5012 9.98236 12.1632C10.2448 13.4722 10.6481 14.7562 11.1869 15.9978C11.5218 13.1497 12.0809 11.0906 12.8643 9.82069C12.9399 9.67826 13.0581 9.55671 13.2063 9.46913C13.3544 9.38155 13.5268 9.33125 13.7049 9.32367C13.9949 9.30265 14.2828 9.3821 14.5075 9.54517C14.6222 9.62152 14.7164 9.71917 14.7835 9.8312C14.8507 9.94323 14.889 10.0669 14.8959 10.1935C14.9164 10.3803 14.8738 10.5682 14.7734 10.7337C14.2767 11.5462 13.8683 12.8972 13.5481 14.7866C13.2278 16.6025 13.109 18.0263 13.1915 19.0578ZM21.003 17.2944C20.2433 18.4138 19.2475 18.9731 18.0156 18.9724C17.7837 18.9719 17.5524 18.9498 17.3258 18.9065C16.899 18.8362 16.4952 18.6835 16.1433 18.4594C15.7914 18.2352 15.5002 17.9451 15.2905 17.6099C14.882 16.9948 14.6778 16.2539 14.6778 15.3873C14.6659 14.2729 15.0089 13.1779 15.6679 12.2269C16.439 11.1075 17.4344 10.5482 18.654 10.5489C18.8863 10.5497 19.1179 10.5714 19.3451 10.6138C19.7713 10.6849 20.1746 10.8379 20.5261 11.062C20.8777 11.2861 21.1689 11.5758 21.3792 11.9103C21.7876 12.5147 21.9918 13.2498 21.9918 14.1156C22.0022 15.2355 21.6599 16.3359 21.003 17.2944ZM28.9823 17.2944C28.2243 18.4138 27.2289 18.9731 25.9962 18.9724C25.7643 18.9719 25.533 18.9498 25.3063 18.9065C24.8797 18.8359 24.4761 18.683 24.1243 18.4589C23.7724 18.2348 23.4811 17.9449 23.2711 17.6099C22.8626 16.9948 22.6584 16.2539 22.6584 15.3873C22.6466 14.2731 22.9892 13.1782 23.6472 12.2269C24.4192 11.1075 25.415 10.5482 26.6346 10.5489C26.8669 10.5497 27.0984 10.5714 27.3257 10.6138C27.7519 10.6849 28.1551 10.8379 28.5067 11.062C28.8583 11.2861 29.1495 11.5758 29.3597 11.9103C29.7682 12.5147 29.9724 13.2498 29.9724 14.1156C29.9831 15.2357 29.6404 16.3363 28.9823 17.2944Z" fill="white"/>
</svg>
