<svg width="32" height="32" viewBox="0 0 32 32" fill="none" xmlns="http://www.w3.org/2000/svg">
<g clip-path="url(#clip0_1223_52039)">
<path d="M9.68901 8.91363C8.88471 9.12487 8.15823 9.73938 7.78203 10.5203C7.59392 10.9172 7.57446 11.0132 7.57446 11.5637C7.57446 12.1014 7.59392 12.2102 7.74959 12.4983C8.44363 13.7977 10.4349 14.6619 13.9311 15.1804C16.3894 15.5516 17.7905 15.8461 18.9321 16.243C20.4045 16.7551 21.5266 17.44 22.2142 18.2593L22.4542 18.5474L23.3882 15.7117C23.9071 14.1498 24.3741 12.7223 24.4325 12.5303C24.6401 11.8262 24.5168 10.9236 24.1276 10.2707C23.8811 9.8546 23.2974 9.3425 22.8044 9.11206L22.3633 8.90723L20.3201 8.86882C19.198 8.84321 16.4218 8.82401 14.1581 8.82401C10.7593 8.81761 9.9809 8.83681 9.68901 8.91363Z" fill="white"/>
<path d="M8.83951 16.2814C8.91086 16.4862 9.39085 17.9777 9.90975 19.5972C10.4287 21.2166 10.9216 22.6825 11.0059 22.8617C11.3497 23.6043 12.2448 24.27 13.114 24.43C13.6654 24.5324 18.6598 24.5132 19.0555 24.4044C20.1776 24.11 20.9884 23.2266 21.3322 21.9336C22.0003 19.3731 19.8144 18.0161 13.5745 17.1327C11.4795 16.8319 10.1238 16.5118 9.10545 16.0701C8.91734 15.9869 8.7487 15.9165 8.73572 15.9165C8.72924 15.9165 8.77464 16.0829 8.83951 16.2814Z" fill="white"/>
</g>
<defs>
<clipPath id="clip0_1223_52039">
<rect width="17.0591" height="15.8109" fill="white" transform="translate(7.57446 8.82277)"/>
</clipPath>
</defs>
</svg>
