<svg width="32" height="32" viewBox="0 0 32 32" fill="none" xmlns="http://www.w3.org/2000/svg">
<path d="M16.0001 2.66667C8.66675 2.66667 2.66675 8.66667 2.66675 16C2.66675 23.3333 8.66675 29.3333 16.0001 29.3333C23.3334 29.3333 29.3334 23.3333 29.3334 16C29.3334 8.66667 23.4445 2.66667 16.0001 2.66667ZM22.1112 21.8889C21.889 22.3333 21.3334 22.4445 21.0001 22.1111C17.889 20.2222 13.889 19.7778 9.2223 20.8889C8.77786 21 8.33342 20.6667 8.2223 20.3333C8.11119 19.8889 8.44453 19.4445 8.77786 19.3333C13.889 18.2222 18.2223 18.6667 21.6667 20.7778C22.2223 21 22.3334 21.5556 22.1112 21.8889ZM23.7779 18.2222C23.4445 18.6667 22.889 18.8889 22.3334 18.5556C18.7779 16.3333 13.2223 15.6667 9.11119 17C8.55564 17.1111 8.00008 16.8889 7.88897 16.3333C7.77786 15.7778 8.00008 15.2222 8.55564 15.1111C13.4445 13.6667 19.4445 14.3333 23.5556 16.8889C23.889 17.1111 24.1112 17.7778 23.7779 18.2222ZM23.889 14.5556C19.5556 12 12.4445 11.7778 8.44453 13C7.77786 13.2222 7.11119 12.7778 6.88897 12.2222C6.66675 11.5556 7.11119 10.8889 7.66675 10.6667C12.4445 9.22223 20.2223 9.55556 25.1112 12.4445C25.6667 12.7778 25.889 13.5556 25.5556 14.2222C25.2223 14.6667 24.4445 14.8889 23.889 14.5556Z" fill="white"/>
</svg>
