<svg width="32" height="32" viewBox="0 0 32 32" fill="none" xmlns="http://www.w3.org/2000/svg">
<path fill-rule="evenodd" clip-rule="evenodd" d="M20.8199 14.7402C20.6243 14.8821 20.3309 14.9886 19.9559 14.9886C19.4016 14.9886 18.8636 14.9176 18.3419 14.7402C18.2115 14.7047 18.1137 14.6692 18.0485 14.6692C17.9507 14.6692 17.9181 14.7402 17.9181 14.8821V15.237C17.9181 15.3435 17.9507 15.4145 17.9833 15.4854C18.0159 15.5209 18.0811 15.5919 18.1789 15.6274C18.7006 15.8758 19.3038 15.9823 19.9559 15.9823C20.6406 15.9823 21.1786 15.8048 21.6024 15.4499C22.0263 15.0951 22.2219 14.616 22.2219 14.0127C22.2219 13.5868 22.1241 13.2674 21.9285 12.9658C21.7329 12.7174 21.4068 12.469 20.934 12.2915L20.0048 11.9011C19.6461 11.7592 19.3853 11.6172 19.2875 11.4753C19.1571 11.3333 19.0919 11.1914 19.0919 10.943C19.0919 10.4107 19.4505 10.109 20.2167 10.109C20.6406 10.109 21.0808 10.18 21.472 10.3219C21.6024 10.3574 21.7003 10.3929 21.7329 10.3929C21.8307 10.3929 21.8959 10.3219 21.8959 10.18V9.8251C21.8959 9.71864 21.8633 9.64766 21.8307 9.57668C21.7981 9.50571 21.7329 9.47022 21.6351 9.43473C21.146 9.25729 20.6406 9.15083 20.1515 9.15083C19.532 9.15083 18.994 9.32827 18.6028 9.64766C18.2115 9.96705 18.0159 10.4284 18.0159 10.9785C18.0159 11.8124 18.4398 12.4157 19.3038 12.7706L20.2982 13.161C20.6243 13.3029 20.8199 13.4094 20.9503 13.5513C21.0808 13.6933 21.1134 13.8352 21.1134 14.0482C21.1297 14.3498 21.0319 14.5982 20.8199 14.7402ZM24.3576 6.8796C24.2272 6.73765 24.0315 6.66667 23.8033 6.66667C23.5751 6.66667 23.412 6.73765 23.2816 6.8796C23.1512 7.02155 23.086 7.19899 23.086 7.41192C23.086 7.62485 23.1512 7.83777 23.2816 7.94424C23.412 8.08619 23.5751 8.15717 23.8033 8.15717C24.0315 8.15717 24.1946 8.08619 24.325 7.94424C24.4554 7.80229 24.5206 7.62485 24.5206 7.41192C24.5206 7.19899 24.488 6.98606 24.3576 6.8796ZM24.1619 9.32827H23.4772C23.3142 9.32827 23.249 9.39924 23.249 9.57668V15.5387C23.249 15.7161 23.3142 15.7871 23.4772 15.7871H24.1619C24.325 15.7871 24.3902 15.7161 24.3902 15.5387V9.57668C24.3902 9.43473 24.325 9.32827 24.1619 9.32827ZM27.2594 10.7655C27.5529 10.4107 28.0257 10.2332 28.6778 10.2332C29.0038 10.2332 29.3299 10.2687 29.6396 10.3752C29.7374 10.4107 29.77 10.4107 29.8352 10.4107C29.933 10.4107 29.9983 10.3397 29.9983 10.1622V9.80736C29.9983 9.70089 29.9657 9.59443 29.933 9.55894C29.9004 9.52345 29.8352 9.45248 29.77 9.41699C29.3462 9.31052 28.906 9.20406 28.5147 9.20406C27.5855 9.20406 26.9008 9.48796 26.3791 10.109C25.89 10.6768 25.6129 11.5463 25.6129 12.6286C25.6129 13.711 25.8411 14.5273 26.3302 15.1128C26.8193 15.6806 27.5203 15.9823 28.4332 15.9823C28.9223 15.9823 29.3951 15.9113 29.7537 15.7338C29.8515 15.6984 29.9167 15.6629 29.9494 15.5919C29.982 15.5564 29.982 15.4499 29.982 15.3435V14.9886C29.982 14.8112 29.9167 14.7402 29.8189 14.7402C29.7863 14.7402 29.7211 14.7402 29.6559 14.7757C29.2972 14.8821 28.9386 14.9531 28.5962 14.9531C27.9767 14.9531 27.504 14.7757 27.2105 14.4208C26.9171 14.0659 26.7867 13.4804 26.7867 12.7351V12.5577C26.8193 11.6882 26.966 11.1204 27.2594 10.7655ZM9.39185 15.7871H10.0766C10.2396 15.7871 10.3048 15.7161 10.3048 15.5387V11.0494C10.3048 10.4461 10.1744 9.96705 9.88092 9.64766C9.58748 9.32827 9.19622 9.15083 8.62563 9.15083C7.85941 9.15083 7.07689 9.43473 6.31067 10.0558C6.04983 9.43473 5.56075 9.15083 4.84344 9.15083C4.12613 9.15083 3.39251 9.43473 2.6752 9.9848L2.60999 9.59443C2.60999 9.48796 2.57739 9.45248 2.51218 9.41699C2.47957 9.3815 2.41436 9.3815 2.34915 9.3815H1.82747C1.66444 9.3815 1.59923 9.45248 1.59923 9.62992V15.5919C1.59923 15.7693 1.66444 15.8403 1.82747 15.8403H2.51218C2.6752 15.8403 2.74041 15.7693 2.74041 15.5919V10.7123C3.2947 10.3574 3.86529 10.1445 4.45218 10.1445C4.77823 10.1445 5.00646 10.251 5.13689 10.4639C5.26731 10.6768 5.36512 10.9607 5.36512 11.4043V15.5387C5.36512 15.7161 5.43033 15.7871 5.59336 15.7871H6.27806C6.44109 15.7871 6.5063 15.7161 6.5063 15.5387V11.1204V10.9075C6.5063 10.8365 6.5063 10.7655 6.5063 10.73C7.09319 10.3397 7.66378 10.1622 8.21806 10.1622C8.54412 10.1622 8.77235 10.2687 8.90277 10.4816C9.03319 10.6946 9.13101 10.9785 9.13101 11.4221V15.5564C9.16361 15.7161 9.22882 15.7871 9.39185 15.7871ZM15.652 9.57668V14.3498C15.0977 14.7402 14.5271 14.9531 13.9729 14.9531C13.6142 14.9531 13.3534 14.8466 13.174 14.6337C13.011 14.4208 12.9458 14.1014 12.9458 13.6223V9.57668C12.9458 9.39924 12.8806 9.32827 12.7176 9.32827H12.0329C11.8698 9.32827 11.8046 9.39924 11.8046 9.57668V14.0304C11.8046 14.6337 11.935 15.1483 12.2285 15.4677C12.5219 15.7871 12.9458 15.9645 13.5164 15.9645C14.2826 15.9645 15.0325 15.6806 15.7661 15.0951L15.8314 15.5209C15.8314 15.6274 15.864 15.6629 15.9292 15.6984C15.9618 15.7338 16.027 15.7338 16.1248 15.7338H16.6139C16.7769 15.7338 16.8421 15.6629 16.8421 15.4854V9.57668C16.8421 9.39924 16.7769 9.32827 16.6139 9.32827H15.9292C15.7172 9.32827 15.652 9.43473 15.652 9.57668ZM28.743 23.9316C30.4547 22.3524 30.9112 19.0875 30.5525 18.5906C30.3895 18.3777 29.5907 18.1648 28.6125 18.1648C27.5529 18.1648 26.2976 18.4132 25.352 19.1407C25.0586 19.3536 25.1238 19.6375 25.4172 19.602C26.4443 19.4601 28.743 19.1762 29.1831 19.744C29.5744 20.3118 28.7267 22.6895 28.3191 23.7186C28.205 24.038 28.4495 24.1445 28.743 23.9316ZM27.3572 20.5602C23.7707 22.2104 19.8418 23.0444 16.2878 23.0444C11.0058 23.0444 5.9031 21.4652 1.77856 18.839C1.71335 18.8036 1.64814 18.7681 1.58293 18.7681C1.3547 18.7681 1.22428 19.052 1.45251 19.3004C5.28361 23.0621 10.3537 25.3333 15.9618 25.3333C19.9885 25.3333 24.6347 23.9671 27.83 21.3942C28.368 20.9506 27.9115 20.294 27.3572 20.5602Z" fill="white"/>
</svg>
