<svg width="32" height="32" viewBox="0 0 32 32" fill="none" xmlns="http://www.w3.org/2000/svg">
<path fill-rule="evenodd" clip-rule="evenodd" d="M9.24402 4.02879C9.52883 4.00517 10.994 4 16.0039 4H19.9096C22.7244 4.00489 22.8846 4.02809 23.4193 4.10552L23.4503 4.11001C24.6072 4.27687 25.5781 4.73832 26.372 5.49658C26.8168 5.92462 27.1232 6.34325 27.3992 6.90382C27.7355 7.58862 27.9007 8.2365 27.9764 9.20001C27.9926 9.40674 28 12.6967 28 15.9889C28 19.2805 27.9932 22.5766 27.9769 22.7833C27.9022 23.7315 27.737 24.3849 27.4112 25.0568C26.7633 26.3931 25.5728 27.3677 24.1349 27.7387C23.6134 27.8735 23.1418 27.9368 22.3297 27.975C22.0399 27.9898 19.0091 27.9935 15.9783 27.9935C12.9474 27.9935 9.91848 27.9842 9.6213 27.9713C8.9199 27.9381 8.37354 27.8679 7.87886 27.7406C6.45021 27.3714 5.23751 26.3821 4.60255 25.0642C4.27031 24.3757 4.11341 23.7463 4.03035 22.7458C4.00636 22.4616 4.00082 20.9978 4.00082 15.992C4.00082 15.3787 4.00058 14.8221 4.00035 14.3162C3.99997 13.4309 3.99965 12.7007 4.00082 12.0928C4.00554 9.27488 4.02845 9.11678 4.1064 8.57902C4.10774 8.5698 4.10909 8.56048 4.11046 8.55102C4.27751 7.39518 4.73896 6.42281 5.50035 5.63243C5.91843 5.19904 6.34204 4.88986 6.87917 4.62314C7.57615 4.27613 8.2159 4.11426 9.24402 4.02879ZM12.3457 7.19139C13.2908 7.14838 13.5928 7.13786 15.999 7.13786H15.9962C18.4031 7.13786 18.704 7.14838 19.649 7.19139C20.5922 7.23458 21.2364 7.3839 21.8013 7.603C22.3845 7.82911 22.8774 8.13183 23.3702 8.62466C23.863 9.11712 24.1657 9.61142 24.3928 10.1941C24.6106 10.7575 24.7601 11.4013 24.8044 12.3445C24.8468 13.2896 24.8579 13.5915 24.8579 15.9977C24.8579 18.4039 24.8468 18.7052 24.8044 19.6502C24.7601 20.5931 24.6106 21.2371 24.3928 21.8006C24.1657 22.3831 23.863 22.8774 23.3702 23.3699C22.8779 23.8627 22.3843 24.1662 21.8018 24.3925C21.2381 24.6116 20.5935 24.7609 19.6503 24.8041C18.7053 24.8471 18.4042 24.8576 15.9978 24.8576C13.5918 24.8576 13.2901 24.8471 12.345 24.8041C11.402 24.7609 10.758 24.6116 10.1943 24.3925C9.61191 24.1662 9.11761 23.8627 8.62533 23.3699C8.13268 22.8774 7.82997 22.3831 7.60349 21.8004C7.38458 21.2371 7.23525 20.5932 7.19188 19.65C7.14905 18.705 7.13835 18.4039 7.13835 15.9977C7.13835 13.5915 7.14942 13.2894 7.19169 12.3443C7.23414 11.4015 7.38365 10.7575 7.60331 10.194C7.83034 9.61142 8.13305 9.11712 8.62588 8.62466C9.11834 8.13201 9.61265 7.8293 10.1954 7.603C10.7587 7.3839 11.4025 7.23458 12.3457 7.19139ZM15.7037 8.73439C15.5245 8.73431 15.3585 8.73424 15.2042 8.73448V8.73227C13.5529 8.73411 13.2362 8.74519 12.4188 8.7821C11.555 8.82179 11.086 8.96576 10.7737 9.08758C10.3602 9.24854 10.0649 9.4405 9.75478 9.7506C9.44468 10.0607 9.25235 10.356 9.09176 10.7695C8.97049 11.0818 8.82615 11.5506 8.78665 12.4145C8.7442 13.3484 8.73571 13.6275 8.73571 15.9935C8.73571 18.3594 8.7442 18.64 8.78665 19.574C8.82597 20.4378 8.97049 20.9067 9.09176 21.2186C9.25272 21.6322 9.44468 21.9268 9.75478 22.2369C10.0649 22.547 10.3602 22.739 10.7737 22.8996C11.0862 23.0208 11.555 23.1652 12.4188 23.2051C13.3528 23.2475 13.6332 23.2567 15.999 23.2567C18.3645 23.2567 18.6451 23.2475 19.5791 23.2051C20.4429 23.1656 20.9121 23.0216 21.2241 22.8998C21.6377 22.7392 21.9321 22.5472 22.2422 22.2371C22.5523 21.9272 22.7446 21.6328 22.9052 21.2193C23.0265 20.9074 23.1708 20.4386 23.2103 19.5747C23.2528 18.6407 23.262 18.3602 23.262 15.9957C23.262 13.6312 23.2528 13.3507 23.2103 12.4167C23.171 11.5528 23.0265 11.084 22.9052 10.7721C22.7443 10.3586 22.5523 10.0633 22.2422 9.75318C21.9323 9.44309 21.6375 9.25112 21.2241 9.09054C20.9118 8.96927 20.4429 8.82493 19.5791 8.78543C18.6449 8.74297 18.3645 8.73448 15.999 8.73448C15.8967 8.73448 15.7984 8.73444 15.7037 8.73439ZM19.6651 11.2684C19.6651 10.6813 20.1413 10.2056 20.7283 10.2056V10.2052C21.3152 10.2052 21.7915 10.6814 21.7915 11.2684C21.7915 11.8554 21.3152 12.3316 20.7283 12.3316C20.1413 12.3316 19.6651 11.8554 19.6651 11.2684ZM11.449 15.9977C11.449 13.4851 13.4862 11.4479 15.9988 11.4478C18.5115 11.4478 20.5481 13.485 20.5481 15.9977C20.5481 18.5104 18.5117 20.5467 15.999 20.5467C13.4863 20.5467 11.449 18.5104 11.449 15.9977ZM18.9522 15.9977C18.9522 14.3666 17.6299 13.0444 15.999 13.0444C14.3678 13.0444 13.0457 14.3666 13.0457 15.9977C13.0457 17.6287 14.3678 18.951 15.999 18.951C17.6299 18.951 18.9522 17.6287 18.9522 15.9977Z" fill="white"/>
</svg>
