<svg width="32" height="32" viewBox="0 0 32 32" fill="none" xmlns="http://www.w3.org/2000/svg">
<g clip-path="url(#clip0_1223_52032)">
<path d="M16.2248 27.0953C16.1643 27.0953 16.1051 27.0935 16.0455 27.0906C16.0075 27.0939 15.9681 27.0953 15.9287 27.0953C14.5399 27.0953 13.6486 26.4655 12.7865 25.8558C12.1914 25.4353 11.6296 25.0383 10.9678 24.928C10.6449 24.8745 10.3234 24.8477 10.0132 24.8477C9.45329 24.8477 9.01212 24.9341 8.68969 24.997C8.49397 25.0354 8.32501 25.0683 8.19642 25.0683C8.06219 25.0683 7.91717 25.0392 7.85381 24.8233C7.79889 24.636 7.75947 24.4553 7.72099 24.2798C7.62243 23.8293 7.5525 23.5519 7.36382 23.5228C5.16125 23.1825 4.53047 22.7183 4.39014 22.3893C4.37043 22.3424 4.35869 22.295 4.35635 22.2485C4.34931 22.1218 4.43848 22.0101 4.56379 21.9899C7.94955 21.4324 9.46784 17.9715 9.5312 17.8246C9.53261 17.8209 9.53448 17.8166 9.53636 17.8129C9.7438 17.3928 9.78417 17.0282 9.65745 16.7292C9.42513 16.182 8.66716 15.9412 8.16544 15.7821C8.04295 15.7431 7.92655 15.7065 7.83456 15.6699C6.83348 15.2743 6.75041 14.8683 6.78983 14.6613C6.85695 14.3084 7.32815 14.0625 7.70972 14.0625C7.81391 14.0625 7.9059 14.0812 7.98334 14.1174C8.4339 14.3281 8.8394 14.4351 9.18999 14.4351C9.67387 14.4351 9.88507 14.2319 9.91089 14.2051C9.89821 13.9761 9.8832 13.7367 9.86771 13.4894C9.7668 11.889 9.64149 9.89948 10.1484 8.76417C11.6662 5.36104 14.8849 5.09634 15.8353 5.09634C15.8597 5.09634 16.252 5.09211 16.252 5.09211H16.3083C17.2606 5.09211 20.4868 5.35682 22.0056 8.76229C22.512 9.89807 22.3867 11.889 22.2858 13.4885L22.2815 13.5584C22.2675 13.7809 22.2538 13.9972 22.2426 14.2047C22.267 14.2295 22.4613 14.4163 22.8996 14.4332H22.9001C23.2338 14.4206 23.6168 14.314 24.0373 14.1174C24.1603 14.0596 24.2973 14.0474 24.3902 14.0474C24.5329 14.0474 24.677 14.0751 24.7967 14.1249L24.8042 14.1282C25.144 14.2488 25.3669 14.4867 25.3716 14.7359C25.3763 14.9706 25.197 15.3231 24.3189 15.6699C24.2278 15.7061 24.1115 15.7427 23.988 15.7821C23.4858 15.9412 22.7283 16.182 22.496 16.7292C22.3693 17.0282 22.4097 17.3924 22.6171 17.8124C22.619 17.8166 22.6209 17.8204 22.6227 17.8246C22.6856 17.9715 24.2025 21.4314 27.5901 21.9895C27.715 22.0101 27.8046 22.1218 27.7976 22.2481C27.7948 22.2955 27.783 22.3433 27.7629 22.3898C27.623 22.7165 26.9932 23.1802 24.7901 23.5204C24.6099 23.5481 24.54 23.7828 24.4325 24.2747C24.3935 24.4535 24.3541 24.6295 24.2997 24.8144C24.2527 24.9749 24.1528 25.05 23.9843 25.05H23.957C23.8402 25.05 23.6745 25.0289 23.4642 24.9876C23.0911 24.9148 22.673 24.8477 22.1407 24.8477C21.83 24.8477 21.5085 24.8745 21.1852 24.928C20.5244 25.0383 19.963 25.4344 19.3689 25.8544C18.5053 26.4655 17.614 27.0953 16.2248 27.0953Z" fill="white"/>
</g>
<defs>
<clipPath id="clip0_1223_52032">
<rect width="32" height="32" fill="white"/>
</clipPath>
</defs>
</svg>
