<svg width="32" height="32" viewBox="0 0 32 32" fill="none" xmlns="http://www.w3.org/2000/svg">
<path d="M29.3333 7.85871C28.3522 8.28704 27.2978 8.5766 26.191 8.70675C27.3207 8.04024 28.1881 6.98478 28.5966 5.72715C27.5395 6.34434 26.3687 6.79255 25.1225 7.0341C24.1245 5.98736 22.7026 5.33333 21.1291 5.33333C18.1075 5.33333 15.6579 7.74468 15.6579 10.7188C15.6579 11.141 15.7063 11.552 15.7996 11.9462C11.2527 11.7216 7.22142 9.57749 4.52304 6.31912C4.05211 7.11456 3.78235 8.03968 3.78235 9.02668C3.78235 10.8951 4.74823 12.5436 6.2162 13.5094C5.31938 13.4815 4.4758 13.2391 3.73814 12.8358C3.73776 12.8583 3.73768 12.8808 3.73768 12.9035C3.73768 15.5129 5.62352 17.6896 8.12634 18.1844C7.66722 18.3074 7.18389 18.3732 6.68495 18.3732C6.33241 18.3732 5.98968 18.3395 5.65562 18.2766C6.35184 20.4162 8.37229 21.9734 10.7663 22.0169C8.89392 23.4613 6.53493 24.3223 3.97171 24.3223C3.53011 24.3223 3.0946 24.2968 2.66663 24.2471C5.08782 25.7751 7.96355 26.6667 11.0531 26.6667C21.1163 26.6667 26.6192 18.4602 26.6192 11.3433C26.6192 11.1098 26.6139 10.8776 26.6034 10.6466C27.6722 9.88729 28.5998 8.93873 29.3333 7.85871Z" fill="white"/>
</svg>
