<svg width="32" height="32" viewBox="0 0 32 32" fill="none" xmlns="http://www.w3.org/2000/svg">
<path fill-rule="evenodd" clip-rule="evenodd" d="M20.8962 12.1796C22.4478 13.2878 24.3478 13.9399 26.3999 13.9399V10.8328C25.2545 10.589 24.2404 9.9906 23.4779 9.15835C22.1728 8.34439 21.2324 7.0015 20.9568 5.4297H18.0798V21.1957C18.0732 23.0337 16.5808 24.5218 14.7404 24.5218C13.6559 24.5218 12.6924 24.0052 12.0823 23.2049C10.9927 22.6552 10.2455 21.5268 10.2455 20.2236C10.2455 18.3803 11.7403 16.8861 13.5846 16.8861C13.938 16.8861 14.2785 16.9411 14.598 17.0424V13.9014C10.6373 13.9832 7.45194 17.2177 7.45194 21.1958C7.45194 23.1816 8.24521 24.9819 9.53255 26.2971C10.694 27.0767 12.0922 27.5312 13.5964 27.5312C17.6279 27.5312 20.8962 24.2646 20.8962 20.235V12.1796Z" fill="white"/>
<path fill-rule="evenodd" clip-rule="evenodd" d="M26.3992 10.8327V9.99256C25.3661 9.99412 24.3535 9.70498 23.4771 9.1582C24.2529 10.0071 25.2745 10.5926 26.3992 10.8327ZM20.956 5.42968C20.9297 5.27949 20.9095 5.12828 20.8955 4.97643V4.46875H16.9231V20.2349C16.9167 22.0727 15.4244 23.5609 13.5839 23.5609C13.0435 23.5609 12.5334 23.4328 12.0815 23.2048C12.6917 24.0052 13.6552 24.5218 14.7397 24.5218C16.5799 24.5218 18.0725 23.0336 18.079 21.1957V5.42968H20.956ZM14.598 13.9014L14.5974 13.0069C14.2655 12.9615 13.9308 12.9388 13.5958 12.939C9.56384 12.939 6.29553 16.2056 6.29553 20.2349C6.29553 22.7611 7.58063 24.9876 9.53255 26.2971C8.24521 24.9819 7.45194 23.1816 7.45194 21.1958C7.45194 17.2177 10.6373 13.9832 14.598 13.9014Z" fill="white"/>
</svg>
