<svg width="32" height="32" viewBox="0 0 32 32" fill="none" xmlns="http://www.w3.org/2000/svg">
<path fill-rule="evenodd" clip-rule="evenodd" d="M9.20001 28H22.8C23.4832 28.0014 24.1601 27.8678 24.7916 27.6069C25.4231 27.3461 25.9969 26.9631 26.48 26.48C26.9631 25.9969 27.3461 25.4231 27.6069 24.7916C27.8678 24.1601 28.0014 23.4832 28 22.8V9.20001C28.0014 8.51675 27.8678 7.83995 27.6069 7.20844C27.3461 6.57693 26.9631 6.00315 26.48 5.52001C25.9969 5.03687 25.4231 4.6539 24.7916 4.39306C24.1601 4.13221 23.4832 3.99865 22.8 4.00001H9.20001C8.51675 3.99865 7.83995 4.13221 7.20844 4.39306C6.57693 4.6539 6.00315 5.03687 5.52001 5.52001C5.03687 6.00315 4.6539 6.57693 4.39306 7.20844C4.13221 7.83995 3.99865 8.51675 4.00001 9.20001V22.8C3.99865 23.4832 4.13221 24.1601 4.39306 24.7916C4.6539 25.4231 5.03687 25.9969 5.52001 26.48C6.00315 26.9631 6.57693 27.3461 7.20844 27.6069C7.83995 27.8678 8.51675 28.0014 9.20001 28ZM21.9995 8.10818C21.9994 8.03189 21.9827 7.95656 21.9507 7.88761C21.9186 7.81866 21.8719 7.75779 21.8139 7.70937C21.6863 7.62346 21.5329 7.58629 21.3809 7.60443L13.1113 9.13668C12.9387 9.17127 12.783 9.26524 12.6703 9.40282C12.5577 9.54041 12.4949 9.71324 12.4926 9.89232V18.2253V19.2958C12.4936 19.4993 12.4269 19.6972 12.3033 19.8573C12.1798 20.0173 12.0066 20.1301 11.8121 20.1773L10.2654 20.5971C9.96093 20.6724 9.67934 20.8228 9.44554 21.0351C9.21175 21.2475 9.03295 21.5151 8.92497 21.8145V21.8355C8.80676 22.1416 8.7712 22.4743 8.82197 22.7991C8.87273 23.1239 9.00798 23.429 9.21368 23.6826C9.41138 23.9231 9.66179 24.113 9.94477 24.2369C10.2277 24.3609 10.5354 24.4155 10.8428 24.3963L11.2141 24.3753C11.7296 24.3511 12.2258 24.1681 12.637 23.8505H12.6576C12.8524 23.7152 13.0185 23.5415 13.1461 23.3396C13.2736 23.1376 13.36 22.9117 13.4 22.6751C13.4821 22.211 13.5235 21.7404 13.5238 21.2688V20.744V13.5655C13.5211 13.445 13.5613 13.3276 13.6372 13.2349C13.713 13.1423 13.8192 13.0808 13.9362 13.0618L20.5354 11.6974C20.5851 11.6864 20.6366 11.6863 20.6864 11.6972C20.7362 11.7081 20.7831 11.7296 20.8241 11.7604C20.864 11.7931 20.8959 11.8348 20.9173 11.8821C20.9388 11.9294 20.9492 11.9812 20.9478 12.0333V16.5461V17.6166C20.9488 17.8201 20.8821 18.018 20.7585 18.1781C20.635 18.3382 20.4618 18.451 20.2673 18.4981L18.7206 18.9179C18.4161 18.9932 18.1345 19.1436 17.9007 19.3559C17.6669 19.5683 17.4881 19.836 17.3801 20.1353V20.1563C17.2619 20.4624 17.2264 20.7951 17.2771 21.1199C17.3279 21.4447 17.4632 21.7498 17.6688 22.0034C17.8665 22.2439 18.117 22.4338 18.3999 22.5577C18.6829 22.6817 18.9905 22.7363 19.298 22.7171L19.6898 22.6751C20.2054 22.6509 20.7016 22.4679 21.1128 22.1504H21.1334C21.3282 22.0151 21.4943 21.8413 21.6219 21.6394C21.7494 21.4375 21.8358 21.2115 21.8758 20.9749C21.9579 20.5108 21.9993 20.0402 21.9995 19.5686V18.834V8.10818Z" fill="white"/>
</svg>
