<svg width="32" height="32" viewBox="0 0 32 32" fill="none" xmlns="http://www.w3.org/2000/svg">
<path fill-rule="evenodd" clip-rule="evenodd" d="M5.33332 2.66669C3.86056 2.66669 2.66666 3.86059 2.66666 5.33335V26.6667C2.66666 28.1394 3.86056 29.3334 5.33332 29.3334H26.6667C28.1394 29.3334 29.3333 28.1395 29.3333 26.6667V5.33335C29.3333 3.86059 28.1394 2.66669 26.6667 2.66669H5.33332ZM16.4987 13.6599L16.4987 13.5594V13.1493C15.0231 13.1493 13.4643 13.4422 13.4643 15.0558C13.4643 15.8732 13.9207 16.4271 14.7044 16.4271C15.2786 16.4271 15.7925 16.0996 16.1168 15.567C16.5003 14.942 16.4996 14.3533 16.4987 13.6599ZM18.0747 18.2191C18.2268 18.2936 18.422 18.2856 18.557 18.1738L18.5627 18.1791C18.9704 17.8436 19.711 17.2445 20.1273 16.9223C20.2938 16.7945 20.2651 16.5895 20.133 16.4191C20.093 16.3677 20.0527 16.3174 20.0127 16.2674C19.6794 15.8507 19.3636 15.456 19.3636 14.6644V11.7142C19.3636 11.6134 19.3643 11.5133 19.3649 11.4139C19.3718 10.282 19.3782 9.24835 18.4651 8.45772C17.6814 7.7601 16.3838 7.51514 15.3906 7.51514C13.4499 7.51514 11.2825 8.18613 10.8261 10.4121C10.7802 10.6491 10.9639 10.7742 11.1304 10.8089L13.1112 11.0059C13.2949 10.9979 13.4298 10.8302 13.4643 10.6597C13.6337 9.8929 14.3284 9.52279 15.1063 9.52279C15.5255 9.52279 16.002 9.66657 16.2518 10.0154C16.5068 10.3642 16.5029 10.8289 16.4994 11.2458C16.499 11.2934 16.4987 11.3405 16.4987 11.3867V11.6316C16.3076 11.6518 16.107 11.6709 15.9002 11.6905C14.8274 11.7923 13.5896 11.9098 12.6605 12.2893C11.383 12.8005 10.4845 13.847 10.4845 15.3833C10.4845 17.351 11.8222 18.3336 13.5389 18.3336C14.9915 18.3336 15.7838 18.0167 16.9034 16.957C16.9625 17.0357 17.0152 17.1081 17.0647 17.1761L17.0648 17.1762L17.0649 17.1763C17.3287 17.5386 17.5044 17.7798 18.0747 18.2191ZM23.1689 19.2147C22.808 18.7448 20.784 18.9886 19.8586 19.1L19.8428 19.1019C19.5632 19.1366 19.5205 18.8895 19.7724 18.7118C21.4013 17.5478 24.0741 17.8838 24.3857 18.2739C24.6974 18.6663 24.3046 21.3865 22.7739 22.6849C22.5391 22.8843 22.315 22.7781 22.4196 22.5137L22.4202 22.5121L22.4202 22.5121L22.4202 22.5121C22.7642 21.6399 23.5337 19.6891 23.1689 19.2147ZM22.0221 20.6966C20.2646 23.0287 17.7173 24.273 15.5241 24.273C12.4489 24.273 9.68038 22.2253 7.58592 18.8195C7.42137 18.5517 7.56881 18.1867 7.76627 18.3952C10.0266 20.7629 12.8214 22.1874 15.7084 22.1874C17.6554 22.1874 19.7973 21.4621 21.7667 19.9571C22.0642 19.7296 22.313 20.3079 22.0221 20.6966Z" fill="white"/>
</svg>
