<svg width="33" height="32" viewBox="0 0 33 32" fill="none" xmlns="http://www.w3.org/2000/svg">
<path d="M21.2583 4.07501C21.2583 4.07501 20.9083 4.17501 20.3333 4.35001C20.2333 4.02501 20.0833 3.65001 19.8833 3.25001C19.2333 2.00001 18.2583 1.32501 17.1083 1.32501C17.0333 1.32501 16.9583 1.32501 16.8583 1.35001C16.8333 1.30001 16.7833 1.27501 16.7583 1.22501C16.2583 0.675005 15.6083 0.425005 14.8333 0.450005C13.3333 0.500005 11.8333 1.57501 10.6333 3.50001C9.78333 4.85001 9.13333 6.55001 8.95833 7.87501C7.23333 8.40001 6.03333 8.77501 6.00833 8.80001C5.13333 9.07501 5.10833 9.10001 5.00833 9.92501C4.85833 10.55 2.58333 28.175 2.58333 28.175L21.4833 31.45V4.02501C21.3833 4.05001 21.3083 4.05001 21.2583 4.07501ZM16.8833 5.42501C15.8833 5.72501 14.7833 6.07501 13.7083 6.40001C14.0083 5.22501 14.6083 4.05001 15.3083 3.27501C15.5833 3.00001 15.9583 2.67501 16.3833 2.47501C16.8083 3.37501 16.9083 4.60001 16.8833 5.42501ZM14.8583 1.45001C15.2083 1.45001 15.5083 1.52501 15.7583 1.67501C15.3583 1.87501 14.9583 2.20001 14.5833 2.57501C13.6333 3.60001 12.9083 5.20001 12.6083 6.72501C11.7083 7.00001 10.8083 7.27501 9.98333 7.52501C10.5083 5.15001 12.5333 1.52501 14.8583 1.45001ZM11.9333 15.2C12.0333 16.8 16.2583 17.15 16.5083 20.925C16.6833 23.9 14.9333 25.925 12.4083 26.075C9.35833 26.275 7.68333 24.475 7.68333 24.475L8.33333 21.725C8.33333 21.725 10.0083 23 11.3583 22.9C12.2333 22.85 12.5583 22.125 12.5333 21.625C12.4083 19.525 8.95833 19.65 8.73333 16.2C8.53333 13.325 10.4333 10.4 14.6333 10.125C16.2583 10.025 17.0833 10.425 17.0833 10.425L16.1333 14.025C16.1333 14.025 15.0583 13.525 13.7833 13.625C11.9333 13.75 11.9083 14.925 11.9333 15.2ZM17.8833 5.12501C17.8833 4.37501 17.7833 3.30001 17.4333 2.40001C18.5833 2.62501 19.1333 3.90001 19.3833 4.67501C18.9333 4.80001 18.4333 4.95001 17.8833 5.12501Z" fill="white"/>
<path d="M22.1083 31.35L29.9583 29.4C29.9583 29.4 26.5833 6.57501 26.5583 6.42501C26.5333 6.27501 26.4083 6.17501 26.2833 6.17501C26.1583 6.17501 23.9583 6.12501 23.9583 6.12501C23.9583 6.12501 22.6083 4.82501 22.1083 4.32501V31.35Z" fill="white"/>
</svg>
