<svg width="48" height="48" viewBox="0 0 48 48" fill="none" xmlns="http://www.w3.org/2000/svg">
<path d="M8.70156 46C8.27656 46 7.92031 45.8554 7.63281 45.5663C7.34531 45.2771 7.20156 44.9187 7.20156 44.4913C7.20156 44.0638 7.34531 43.7083 7.63281 43.425C7.92031 43.1417 8.27656 43 8.70156 43H39.3016C39.7266 43 40.0828 43.1446 40.3703 43.4338C40.6578 43.723 40.8016 44.0813 40.8016 44.5088C40.8016 44.9363 40.6578 45.2917 40.3703 45.575C40.0828 45.8583 39.7266 46 39.3016 46H8.70156ZM8.70156 5C8.27656 5 7.92031 4.85542 7.63281 4.56625C7.34531 4.27705 7.20156 3.91872 7.20156 3.49125C7.20156 3.06375 7.34531 2.70833 7.63281 2.425C7.92031 2.14167 8.27656 2 8.70156 2H39.3016C39.7266 2 40.0828 2.14458 40.3703 2.43375C40.6578 2.72295 40.8016 3.08128 40.8016 3.50875C40.8016 3.93625 40.6578 4.29167 40.3703 4.575C40.0828 4.85833 39.7266 5 39.3016 5H8.70156ZM24.0016 25.8C25.6682 25.8 27.0682 25.2333 28.2016 24.1C29.3349 22.9667 29.9016 21.5667 29.9016 19.9C29.9016 18.2333 29.3349 16.8333 28.2016 15.7C27.0682 14.5667 25.6682 14 24.0016 14C22.3349 14 20.9349 14.5667 19.8016 15.7C18.6682 16.8333 18.1016 18.2333 18.1016 19.9C18.1016 21.5667 18.6682 22.9667 19.8016 24.1C20.9349 25.2333 22.3349 25.8 24.0016 25.8ZM6.60156 40C5.80156 40 5.10156 39.7 4.50156 39.1C3.90156 38.5 3.60156 37.8 3.60156 37V11C3.60156 10.1333 3.90156 9.41667 4.50156 8.85C5.10156 8.28333 5.80156 8 6.60156 8H41.4016C42.2016 8 42.9016 8.3 43.5016 8.9C44.1016 9.5 44.4016 10.2 44.4016 11V37C44.4016 37.8 44.1016 38.5 43.5016 39.1C42.9016 39.7 42.2016 40 41.4016 40H6.60156ZM11.0016 37C12.7016 34.9 14.7182 33.325 17.0516 32.275C19.3849 31.225 21.6932 30.7 23.9766 30.7C26.2599 30.7 28.5932 31.225 30.9766 32.275C33.3599 33.325 35.3682 34.9 37.0016 37H41.4016V11H6.60156V37H11.0016ZM15.7016 37H32.4016C31.3682 36 30.1599 35.2 28.7766 34.6C27.3932 34 25.8016 33.7 24.0016 33.7C22.2016 33.7 20.6266 34 19.2766 34.6C17.9266 35.2 16.7349 36 15.7016 37ZM24.0095 22.8C23.2042 22.8 22.5266 22.5167 21.9766 21.95C21.4266 21.3833 21.1516 20.7 21.1516 19.9C21.1516 19.1 21.4239 18.4167 21.9687 17.85C22.5134 17.2833 23.1884 17 23.9937 17C24.7989 17 25.4766 17.2833 26.0266 17.85C26.5766 18.4167 26.8516 19.1 26.8516 19.9C26.8516 20.7 26.5792 21.3833 26.0345 21.95C25.4897 22.5167 24.8147 22.8 24.0095 22.8Z" fill="#AF9AF3"/>
</svg>
