<svg width="48" height="48" viewBox="0 0 48 48" fill="none" xmlns="http://www.w3.org/2000/svg">
<path fill-rule="evenodd" clip-rule="evenodd" d="M40.5 7.69811C40.5 6.76027 41.1716 6 42 6C42.8284 6 43.5 6.76027 43.5 7.69811V40.3019C43.5 41.2397 42.8284 42 42 42C41.1716 42 40.5 41.2397 40.5 40.3019V7.69811ZM33 18C32.1716 18 31.5 18.6772 31.5 19.5126V40.4874C31.5 41.3228 32.1716 42 33 42C33.8284 42 34.5 41.3228 34.5 40.4874V19.5126C34.5 18.6772 33.8284 18 33 18ZM24 24C23.1716 24 22.5 24.7651 22.5 25.7089V40.2911C22.5 41.2349 23.1716 42 24 42C24.8284 42 25.5 41.2349 25.5 40.2911V25.7089C25.5 24.7651 24.8284 24 24 24ZM13.5 19.5126C13.5 18.6772 14.1716 18 15 18C15.8284 18 16.5 18.6772 16.5 19.5126V40.4874C16.5 41.3228 15.8284 42 15 42C14.1716 42 13.5 41.3228 13.5 40.4874V19.5126ZM6 27C5.17157 27 4.5 27.6376 4.5 28.4241V40.576C4.5 41.3624 5.17157 42 6 42C6.82843 42 7.5 41.3624 7.5 40.576V28.4241C7.5 27.6376 6.82843 27 6 27Z" fill="#AF9AF3"/>
</svg>
