<svg width="48" height="48" viewBox="0 0 48 48" fill="none" xmlns="http://www.w3.org/2000/svg">
<path d="M13.2976 16.3452C12.591 10.8766 16.4513 5.87053 21.9199 5.16385C27.3885 4.45716 32.3946 8.31748 33.1013 13.7861C33.283 15.1923 33.1632 16.5642 32.7936 17.8397C32.563 18.6354 33.0211 19.4673 33.8168 19.6979C34.6125 19.9284 35.4445 19.4703 35.675 18.6746C36.1572 17.0108 36.3121 15.2241 36.0766 13.4016C35.1575 6.28981 28.6472 1.26956 21.5354 2.18859C14.4236 3.10761 9.40335 9.61791 10.3224 16.7297C10.5579 18.5522 11.1619 20.2409 12.0511 21.7274C12.4764 22.4384 13.3975 22.67 14.1084 22.2447C14.8194 21.8194 15.051 20.8984 14.6257 20.1874C13.944 19.0478 13.4794 17.7515 13.2976 16.3452Z" fill="#AF9AF3"/>
<path d="M22.5676 10.1745C19.9918 10.5073 18.1736 12.8652 18.5065 15.4409C18.5842 16.0419 18.7709 16.5984 19.043 17.0956C19.4408 17.8223 19.1742 18.7338 18.4475 19.1316C17.7208 19.5294 16.8093 19.2627 16.4115 18.5361C15.963 17.7166 15.6575 16.8027 15.5312 15.8254C14.986 11.6065 17.9642 7.74441 22.1831 7.19922C26.402 6.65403 30.2641 9.63217 30.8093 13.8511C30.9355 14.8284 30.8725 15.79 30.647 16.6965C30.447 17.5004 29.6332 17.99 28.8292 17.79C28.0253 17.59 27.5357 16.7762 27.7357 15.9723C27.8725 15.4223 27.9117 14.8366 27.834 14.2356C27.5011 11.6598 25.1433 9.84163 22.5676 10.1745Z" fill="#AF9AF3"/>
<path fill-rule="evenodd" clip-rule="evenodd" d="M20.4011 18.6361C20.4011 16.8145 21.8778 15.3377 23.6995 15.3377C25.5211 15.3377 26.9979 16.8145 26.9979 18.6361V21.3453C27.0952 21.3367 27.1937 21.3323 27.2933 21.3323C28.8124 21.3323 30.0916 22.3592 30.4746 23.7567C30.6104 23.7397 30.7487 23.7309 30.8891 23.7309C32.1945 23.7309 33.3228 24.4893 33.8575 25.5895C34.0606 25.5504 34.2704 25.5299 34.485 25.5299C36.3066 25.5299 37.7833 27.0067 37.7833 28.8283V36.7038C37.785 36.7749 37.7858 36.8461 37.7858 36.9176C37.7858 36.989 37.785 37.0602 37.7833 37.1313V37.2208C37.7833 37.3594 37.7747 37.4967 37.7578 37.632C37.3928 42.2656 33.5191 45.9109 28.7925 45.9109C25.0573 45.9109 21.8573 43.6341 20.498 40.3981L14.7754 30.4864C13.6991 28.6221 14.3378 26.2382 16.2021 25.1618C17.5617 24.3769 19.1975 24.5041 20.4011 25.3534V18.6361ZM23.6995 18.3377C23.5347 18.3377 23.4011 18.4713 23.4011 18.6361V26.8901C23.4011 29.3423 20.1547 30.2122 18.9286 28.0885C18.6807 27.6591 18.1316 27.512 17.7021 27.7599C17.2727 28.0078 17.1256 28.557 17.3735 28.9864L23.1455 38.9838C23.18 39.0436 23.2104 39.1057 23.2364 39.1697C24.1278 41.3663 26.2816 42.9109 28.7925 42.9109C31.9515 42.9109 34.5408 40.4659 34.7694 37.3661C34.7719 37.3323 34.7755 37.2986 34.7803 37.2651C34.7822 37.2514 34.7833 37.2366 34.7833 37.2208V37.0745C34.7847 37.0224 34.7858 36.9701 34.7858 36.9176C34.7858 36.865 34.7852 36.8127 34.7838 36.7606L34.7829 36.7222L34.7833 28.8283C34.7833 28.6635 34.6497 28.5299 34.485 28.5299C34.3237 28.5299 34.1918 28.6583 34.1867 28.8177C34.1605 29.6363 33.4824 30.2826 32.6635 30.2695C31.8445 30.2563 31.1875 29.5887 31.1875 28.7697V27.0293C31.1875 26.8645 31.0539 26.7309 30.8891 26.7309C30.7278 26.7309 30.596 26.8594 30.5909 27.0188C30.5647 27.8374 29.8867 28.4838 29.0677 28.4707C28.2487 28.4576 27.5916 27.79 27.5916 26.9709V24.6307C27.5916 24.4659 27.458 24.3323 27.2933 24.3323C27.1348 24.3323 27.0043 24.4565 26.9954 24.6119C26.9487 25.4222 26.266 26.0484 25.4547 26.025C24.6434 26.0017 23.9979 25.3373 23.9979 24.5256V18.6361C23.9979 18.4713 23.8643 18.3377 23.6995 18.3377Z" fill="#AF9AF3"/>
</svg>
