<svg width="48" height="48" viewBox="0 0 48 48" fill="none" xmlns="http://www.w3.org/2000/svg">
<g clip-path="url(#clip0_614_60361)">
<path fill-rule="evenodd" clip-rule="evenodd" d="M27.7141 25.2922C29.9757 23.9753 31.5001 21.4927 31.5001 18.647C31.5001 14.4237 28.1423 11 24.0002 11C19.8582 11 16.5004 14.4237 16.5004 18.647C16.5004 21.4927 18.0248 23.9753 20.2865 25.2922C19.2365 25.598 18.2426 26.0301 17.3321 26.5713C17.3117 26.5568 17.2909 26.5427 17.2696 26.529C15.9519 25.6835 14.4498 25.1077 12.8406 24.8773C14.1605 23.7551 15.0004 22.0658 15.0004 20.1766C15.0004 16.7979 12.3142 14.0589 9.00055 14.0589C5.68691 14.0589 3.00067 16.7979 3.00067 20.1766C3.00067 22.6842 4.48037 24.8394 6.59806 25.784C2.94086 27.4708 0.32412 31.0836 0.00442244 35.3541C-0.0586261 36.1963 0.559874 36.9312 1.38588 36.9955C2.21189 37.0597 2.93261 36.4291 2.99566 35.5869C3.32038 31.2493 6.89061 27.8235 11.2546 27.8235C12.514 27.8235 13.7052 28.108 14.7716 28.6168C13.0549 30.445 12.0007 32.8123 12.0007 35.4705C12.0007 36.3152 12.6722 36.9999 13.5006 36.9999C14.329 36.9999 15.0006 36.3152 15.0006 35.4705C15.0006 31.4598 18.8047 27.8235 24.0004 27.8235C29.1962 27.8235 33.0003 31.4598 33.0003 35.4705C33.0003 36.3152 33.6718 36.9999 34.5002 36.9999C35.3286 36.9999 36.0002 36.3152 36.0002 35.4705C36.0002 32.7957 34.9328 30.4154 33.197 28.5826C34.2539 28.0954 35.43 27.8235 36.6721 27.8235C41.0847 27.8235 44.6782 31.2594 45.0046 35.5878C45.0682 36.4299 45.7892 37.0602 46.6152 36.9954C47.4412 36.9306 48.0593 36.1954 47.9957 35.3532C47.6739 31.0859 45.0468 27.4833 41.3801 25.794C43.5098 24.8546 44.9999 22.693 44.9999 20.1766C44.9999 16.7979 42.3137 14.0589 39.0001 14.0589C35.6864 14.0589 33.0002 16.7979 33.0002 20.1766C33.0002 22.0602 33.8351 23.745 35.1482 24.8672C33.4973 25.0911 31.9566 25.6736 30.6078 26.5353C29.7139 26.0108 28.7409 25.5911 27.7141 25.2922ZM28.5002 18.647C28.5002 21.181 26.4855 23.2353 24.0002 23.2353C21.515 23.2353 19.5003 21.181 19.5003 18.647C19.5003 16.113 21.515 14.0588 24.0002 14.0588C26.4855 14.0588 28.5002 16.113 28.5002 18.647ZM12.0005 20.1766C12.0005 21.8659 10.6574 23.2354 9.00055 23.2354C7.34373 23.2354 6.00061 21.8659 6.00061 20.1766C6.00061 18.4872 7.34373 17.1178 9.00055 17.1178C10.6574 17.1178 12.0005 18.4872 12.0005 20.1766ZM39.0001 23.2354C40.6569 23.2354 42 21.8659 42 20.1766C42 18.4872 40.6569 17.1178 39.0001 17.1178C37.3432 17.1178 36.0001 18.4872 36.0001 20.1766C36.0001 21.8659 37.3432 23.2354 39.0001 23.2354Z" fill="#AF9AF3"/>
</g>
<defs>
<clipPath id="clip0_614_60361">
<rect width="48" height="48" fill="white"/>
</clipPath>
</defs>
</svg>
