<svg width="118" height="24" viewBox="0 0 118 24" fill="none" xmlns="http://www.w3.org/2000/svg">
<path d="M106.034 0.00093131H101.074L101.073 0C100.789 0 100.521 0.137909 100.356 0.369933L91.1005 13.3772C90.4901 14.159 89.6282 14.1711 88.9685 13.3772L79.64 0.367138C79.4751 0.136978 79.2086 0 78.9253 0H73.9643C73.6605 0 73.4145 0.246001 73.4145 0.548843V1.15173C73.4145 1.26635 73.4518 1.37817 73.5207 1.46948L85.9391 18.0503C88.0544 21.0005 92.1031 20.8132 94.1289 18.0503L100.621 9.28654V23.4484C100.621 23.7521 100.867 23.9981 101.171 23.9981H106.034C106.338 23.9981 106.584 23.7521 106.584 23.4484V0.550707C106.584 0.246934 106.338 0.00093131 106.034 0.00093131Z" fill="#E3F331"/>
<path d="M111.886 0.000932732H116.748C117.052 0.000932732 117.298 0.246935 117.298 0.550708V23.4493C117.298 23.7531 117.052 23.9991 116.748 23.9991H111.886C111.582 23.9991 111.336 23.7531 111.336 23.4493V0.550708C111.336 0.246935 111.582 0.000932732 111.886 0.000932732Z" fill="#E3F331"/>
<path d="M73.4164 23.4502V5.14365C73.4164 4.88833 73.7397 4.78118 73.8925 4.98524L79.2039 12.0764C79.3176 12.2274 79.3791 12.4109 79.3791 12.5992V23.4502C79.3791 23.754 79.1331 24 78.8293 24H73.9661C73.6624 24 73.4164 23.754 73.4164 23.4502Z" fill="#E3F331"/>
<path fill-rule="evenodd" clip-rule="evenodd" d="M37.8133 0.000932732H57.239C64.3041 0.000932732 69.471 5.36729 69.471 12C69.471 18.6327 64.3041 23.9991 57.2381 23.9991H37.8124C30.7464 23.9991 25.5794 18.6318 25.5794 12C25.5794 5.36823 30.7464 0.000932732 37.8133 0.000932732ZM57.2399 18.4724C60.6812 18.4724 63.4794 15.5689 63.4794 12C63.4794 8.43112 60.6802 5.52757 57.2399 5.52757H37.8133C34.373 5.52757 31.5738 8.43112 31.5738 12C31.5738 15.5689 34.373 18.4724 37.8133 18.4724H57.2399Z" fill="#E3F331"/>
<path d="M0.549774 0.000932732H5.41202C5.71579 0.000932732 5.96179 0.246935 5.96179 0.550708V23.4493C5.96179 23.7531 5.71579 23.9991 5.41202 23.9991H0.549774C0.246001 23.9991 0 23.7531 0 23.4493V0.550708C0 0.246935 0.246001 0.000932732 0.549774 0.000932732Z" fill="#E3F331"/>
<path d="M24.219 0.000932732H17.576C17.3431 0.000932732 17.1185 0.0931836 16.9536 0.258116L9.80836 7.41357C7.2561 9.96956 7.2561 14.1096 9.80836 16.6656L16.8725 23.7419C17.0374 23.9068 17.2611 23.9991 17.494 23.9991H24.136C24.4296 23.9991 24.5768 23.644 24.369 23.4362L14.1786 13.2458C13.5133 12.5805 13.5133 11.5024 14.1786 10.838L24.4519 0.563754C24.6597 0.355958 24.5125 0.000932732 24.219 0.000932732Z" fill="#E3F331"/>
</svg>
